<svg xmlns="http://www.w3.org/2000/svg" xmlns:xlink="http://www.w3.org/1999/xlink" viewBox="0 0 350 23"><defs><path id="a" d="M0 .939h14.669v22.85H0z"/><path id="c" d="M.129.692h20.205V24H.129z"/><path id="e" d="M.061.692h20.207V24H.061z"/><path id="g" d="M.18.896H18V23.79H.18z"/></defs><g fill="none" fill-rule="evenodd"><g transform="translate(0 -.692)"><mask id="b" fill="#fff"><use xlink:href="#a"/></mask><path fill="#333" d="M6.38 13.986c5.15 0 7.725-2.328 7.725-6.278 0-3.949-2.61-6.276-7.794-6.276H.564v12.554H6.38zM0 23.506V1.468C0 1.114.14.939.528.939H6.31c5.5 0 8.358 2.539 8.358 6.769 0 4.233-2.786 6.772-8.288 6.772H.564v9.026c0 .178-.072.283-.212.283H.247c-.142 0-.247-.105-.247-.283z" mask="url(#b)"/></g><path fill="#333" d="M31.43 13.788L26.103.777l-5.325 13.01h10.65zM25.681.458c.07-.175.177-.282.422-.282.283 0 .39.107.46.282l9.238 22.464c-.034.175-.458.35-.705-.178l-3.456-8.462H20.604l-3.492 8.462c-.21.564-.633.353-.67.178L25.682.458z"/><g transform="translate(39 -.692)"><mask id="d" fill="#fff"><use xlink:href="#c"/></mask><path fill="#333" d="M.129 12.399C.129 5.735 4.465.692 10.919.692c3.279 0 5.466 1.163 6.84 2.54 1.059 1.056 1.517 2.29 1.517 2.537 0 .318-.281.388-.352.354-.634-2.01-2.997-4.937-8.005-4.937-6.1 0-10.226 4.83-10.226 11.213 0 6.347 3.914 11.108 10.12 11.108 5.219 0 8.957-3.596 9.027-8.497v-1.13h-8.287c-.176 0-.316-.071-.316-.246v-.036c0-.14.14-.211.316-.211h8.287c.317 0 .494.14.494.528v9.803c0 .036-.105.07-.211.07-.213 0-.283-.174-.283-.668v-5.713C18.924 21.357 15.397 24 10.778 24 4.218 24 .128 19.063.128 12.399" mask="url(#d)"/></g><path fill="#333" d="M66.33 22.533V.776c0-.354.142-.529.53-.529h13.717c.21 0 .318.07.318.211V.53c0 .14-.107.211-.318.211H66.896v10.367h9.978c.177 0 .28.07.28.213v.034c0 .14-.103.247-.28.247h-9.978v10.966h14.209c.176 0 .318.072.318.211v.072c0 .142-.142.211-.318.211H66.86c-.388 0-.53-.176-.53-.528M104.784 22.568c5.007 0 7.652-1.586 7.652-5.571 0-3.844-2.645-5.573-7.76-5.573h-7.191v11.144h7.299zm-.141-11.636c4.443 0 6.594-1.975 6.594-5.15 0-3.242-2.187-5.041-6.771-5.041h-6.981v10.19h7.158zM96.92 22.534V.777c0-.354.14-.53.528-.53h7.017c4.972 0 7.335 2.01 7.335 5.536 0 2.997-1.728 4.83-5.148 5.324 4.23.424 6.347 2.327 6.347 5.89 0 4.266-2.822 6.065-8.18 6.065h-7.371c-.388 0-.528-.176-.528-.528zM139.387 11.637c0-6.207-4.054-11.144-10.403-11.144-6.382 0-10.508 4.972-10.508 11.214 0 6.241 4.09 11.107 10.438 11.107 6.383 0 10.473-4.937 10.473-11.177m-21.475.07C117.912 5.148 122.285 0 128.984 0c6.7 0 10.967 5.077 10.967 11.637 0 6.558-4.301 11.671-11.037 11.671-6.7 0-11.002-5.043-11.002-11.6M146.386 22.814V.6c0-.246.14-.389.35-.389h.178c.177 0 .317.107.53.39l16.29 21.687V.494c0-.177.07-.284.214-.284h.104c.177 0 .21.107.21.284v22.285c0 .177-.068.319-.28.319h-.106c-.212 0-.284-.072-.46-.354L146.95.846v21.968c0 .177-.072.284-.248.284h-.105c-.141 0-.211-.107-.211-.284M177.677 22.568c7.512 0 11.918-4.231 11.918-10.966 0-6.665-4.337-10.861-11.741-10.861h-5.362v21.827h5.185zm-5.747-.034V.777c0-.354.14-.53.528-.53h5.396c7.759 0 12.305 4.373 12.305 11.355 0 7.016-4.655 11.46-12.482 11.46h-5.219c-.388 0-.528-.176-.528-.528z"/><g transform="translate(205 -.692)"><mask id="f" fill="#fff"><use xlink:href="#e"/></mask><path fill="#333" d="M.061 12.399C.061 5.735 4.4.692 10.85.692c3.28 0 5.467 1.163 6.845 2.54 1.056 1.056 1.517 2.29 1.517 2.537 0 .318-.282.388-.355.354-.634-2.01-2.998-4.937-8.007-4.937-6.1 0-10.221 4.83-10.221 11.213 0 6.347 3.91 11.108 10.119 11.108 5.219 0 8.958-3.596 9.025-8.497v-1.13H11.49c-.18 0-.318-.071-.318-.246v-.036c0-.14.139-.211.318-.211h8.284c.317 0 .495.14.495.528v9.803c0 .036-.11.07-.213.07-.212 0-.282-.174-.282-.668v-5.713C18.857 21.357 15.33 24 10.711 24 4.153 24 .061 19.063.061 12.399" mask="url(#f)"/></g><path fill="#333" d="M245.523 13.788L240.199.777l-5.324 13.01h10.648zm-5.75-13.33c.076-.175.18-.282.426-.282.28 0 .39.107.459.282l9.24 22.464c-.034.175-.46.35-.705-.178l-3.458-8.462h-11.037l-3.493 8.462c-.211.564-.63.353-.67.178L239.774.458zM255.657 22.533V.494c0-.177.105-.283.248-.283h.104c.142 0 .212.106.212.283v22.073h11.565c.178 0 .283.072.283.211v.072c0 .142-.105.211-.283.211h-11.6c-.39 0-.529-.176-.529-.528M274.04 22.533V.494c0-.177.103-.283.248-.283h.101c.144 0 .214.106.214.283v22.073h11.565c.178 0 .281.072.281.211v.072c0 .142-.103.211-.28.211h-11.602c-.389 0-.528-.176-.528-.528M292.422 22.533V.776c0-.354.138-.529.527-.529h13.72c.207 0 .317.07.317.211V.53c0 .14-.11.211-.317.211h-13.683v10.367h9.98c.177 0 .281.07.281.213v.034c0 .14-.104.247-.281.247h-9.98v10.966h14.211c.173 0 .316.072.316.211v.072c0 .142-.143.211-.316.211h-14.248c-.389 0-.527-.176-.527-.528M320.18 12.448c4.974 0 7.445-2.222 7.445-5.889 0-3.703-2.505-5.819-7.548-5.819h-5.925v11.708h6.029zm-2.428.458l10.716 9.872c.075.072-.069.32-.281.32-.105 0-.248-.073-.42-.248l-10.72-9.944h-2.896v9.908c0 .178-.067.283-.212.283h-.103c-.144 0-.247-.105-.247-.283V.776c0-.353.144-.529.527-.529h5.962c5.393 0 8.144 2.292 8.144 6.312 0 3.984-2.751 6.347-8.005 6.347h-2.465z"/><g transform="translate(332 -.692)"><mask id="h" fill="#fff"><use xlink:href="#g"/></mask><path fill="#333" d="M8.792 23.506V13.491L.182 1.15C.15.94.573.727.822 1.114l8.25 11.85 8.287-11.85c.282-.457.707-.07.632.035L9.355 13.491v10.015c0 .177-.075.283-.213.283h-.104c-.143 0-.246-.106-.246-.283" mask="url(#h)"/></g></g></svg>