<svg xmlns="http://www.w3.org/2000/svg" viewBox="0 0 350 24"><g fill="#333" fill-rule="evenodd"><path d="M.815 13.294h5.69c4.971 0 7.6-2.128 7.6-6.152 0-3.966-2.725-6.151-7.669-6.151H.814v12.303zM.476 23.348H.372c-.22 0-.372-.168-.372-.408V.901C0 .461.212.247.653.247h5.782c5.47 0 8.482 2.448 8.482 6.895 0 4.447-2.987 6.896-8.412 6.896H.813v8.902c0 .3-.174.408-.337.408zM21.09 13.788h10.277L26.23 1.231l-5.14 12.557zm-4.246 9.572h-.031c-.176-.014-.337-.14-.368-.288l-.007-.038.014-.035L25.692.536c.06-.155.184-.36.538-.36.3 0 .473.107.575.36l9.252 22.498-.007.036c-.027.138-.17.252-.338.274-.12.018-.406 0-.603-.422l-3.426-8.39h-10.87l-3.46 8.385c-.145.39-.385.443-.51.443zM49.902 23.559c-6.444 0-10.773-4.713-10.773-11.727C39.13 4.977 43.72 0 50.044 0c3.6 0 5.754 1.402 6.928 2.578 1.076 1.072 1.553 2.328 1.553 2.625 0 .25-.137.372-.219.42-.107.069-.235.085-.313.044l-.048-.023-.016-.05c-.157-.497-1.71-4.85-7.885-4.85-5.854 0-10.102 4.664-10.102 11.088 0 6.466 4.11 10.983 9.995 10.983 5.09 0 8.833-3.522 8.903-8.374v-1.002h-8.163c-.272 0-.44-.143-.44-.371v-.036c0-.202.177-.336.44-.336h8.288c.411 0 .62.219.62.653v9.802c0 .155-.213.197-.338.197-.376 0-.407-.393-.407-.795V17.73c-1.225 3.569-4.638 5.828-8.938 5.828M81.23 23.311H66.984c-.44 0-.652-.213-.652-.652V.9c0-.44.213-.653.653-.653H80.7c.4 0 .444.234.444.335v.072c0 .1-.043.337-.444.337H67.147v10.115h9.853c.3 0 .407.176.407.338v.034c0 .22-.168.373-.407.373h-9.853v10.715H81.23c.266 0 .442.136.442.337v.072c0 .2-.176.335-.442.335M97.734 10.932h7.033c4.172 0 6.47-1.784 6.47-5.024 0-3.262-2.237-4.916-6.647-4.916h-6.856v9.94zm0 11.636h7.174c5.206 0 7.527-1.68 7.527-5.447 0-3.665-2.497-5.447-7.634-5.447h-7.067v10.894zm7.21.744h-7.37c-.44 0-.654-.214-.654-.653V.902c0-.441.213-.655.653-.655h7.017c4.88 0 7.46 1.957 7.46 5.66 0 2.822-1.537 4.642-4.459 5.303 3.805.59 5.658 2.53 5.658 5.91 0 4.225-2.639 6.192-8.305 6.192zM129.108.744c-6.017 0-10.383 4.663-10.383 11.088 0 6.466 4.24 10.982 10.313 10.982 6.092 0 10.348-4.545 10.348-11.05 0-6.489-4.226-11.02-10.278-11.02m-.07 22.814c-6.55 0-11.126-4.822-11.126-11.726 0-6.856 4.71-11.832 11.196-11.832 6.53 0 11.092 4.837 11.092 11.763 0 6.945-4.59 11.795-11.162 11.795M164.107 23.348h-.106c-.28 0-.383-.12-.567-.412L147.2 1.346V22.94c0 .26-.136.408-.373.408h-.106c-.162 0-.336-.107-.336-.408V.725c0-.308.192-.514.476-.514h.178c.248 0 .424.168.63.439l16.066 21.387V.619c0-.378.258-.408.337-.408h.104c.337 0 .337.308.337.408v22.285c0 .278-.152.444-.406.444M172.742 22.567h5.06c7.384 0 11.793-4.053 11.793-10.84 0-6.722-4.342-10.736-11.616-10.736h-5.237v21.576zm5.06.744h-5.219c-.44 0-.653-.214-.653-.653V.901c0-.44.213-.654.653-.654h5.396c7.784 0 12.43 4.291 12.43 11.48 0 7.145-4.83 11.584-12.607 11.584zM215.837 23.559c-6.445 0-10.775-4.713-10.775-11.727C205.062 4.977 209.65 0 215.975 0c3.599 0 5.758 1.402 6.933 2.577 1.076 1.075 1.554 2.33 1.554 2.626a.472.472 0 0 1-.215.419c-.105.068-.236.084-.32.047l-.048-.023-.017-.053c-.156-.496-1.708-4.848-7.887-4.848-5.851 0-10.097 4.663-10.097 11.087 0 6.466 4.109 10.983 9.994 10.983 5.09 0 8.834-3.522 8.902-8.374v-1.002h-8.161c-.272 0-.441-.143-.441-.371v-.036c0-.204.173-.336.44-.336h8.287c.41 0 .62.219.62.653v9.802c0 .156-.221.197-.338.197-.376 0-.407-.393-.407-.795V17.73c-1.226 3.57-4.638 5.829-8.937 5.829M235.186 13.788h10.274l-5.136-12.557-5.138 12.557zm-4.249 9.572h-.024c-.175-.01-.34-.136-.376-.285l-.008-.039.014-.037L239.785.534c.07-.167.196-.358.54-.358.3 0 .478.111.574.362l9.255 22.496-.007.037c-.028.138-.171.252-.341.273-.117.018-.405 0-.602-.422l-3.428-8.39h-10.87l-3.46 8.385c-.147.391-.388.443-.508.443zM267.911 23.311h-11.6c-.44 0-.654-.213-.654-.652V.619c0-.24.153-.408.372-.408h.105c.163 0 .337.108.337.409v21.948h11.44c.3 0 .407.173.407.335v.073c0 .079-.029.335-.407.335M286.293 23.311h-11.601c-.439 0-.653-.213-.653-.652V.619c0-.24.153-.408.373-.408h.103c.163 0 .338.108.338.409v21.948h11.44c.3 0 .406.173.406.335v.073c0 .079-.029.335-.406.335M307.321 23.311h-14.247c-.439 0-.652-.213-.652-.652V.9c0-.44.213-.653.652-.653h13.72c.398 0 .441.234.441.335v.072c0 .1-.043.337-.44.337h-13.559v10.115h9.855c.3 0 .406.176.406.338v.034c0 .22-.167.373-.406.373h-9.855v10.715h14.085c.264 0 .441.136.441.337v.072c0 .2-.177.335-.44.335M314.402 12.448h5.903c4.72 0 7.32-2.047 7.32-5.765 0-3.723-2.568-5.692-7.422-5.692h-5.8v11.457zm13.91 10.9c-.152 0-.323-.096-.509-.285l-10.68-9.907h-2.72v9.783c0 .38-.26.408-.339.408h-.102c-.219 0-.372-.168-.372-.408V.901c0-.44.213-.654.652-.654h5.961c5.332 0 8.268 2.286 8.268 6.436 0 4.174-2.887 6.473-8.13 6.473h-2.145l10.481 9.655c.065.062.078.158.038.258a.45.45 0 0 1-.404.278zM350.014.512h-.001zm-8.746 22.836h-.104c-.218 0-.372-.168-.372-.408v-9.976L332.185.603c-.025-.151.078-.3.249-.364.169-.07.437-.042.618.242l8.146 11.697L349.382.477a.518.518 0 0 1 .449-.272c.185.01.338.132.395.247.035.074.032.148-.008.204l-8.612 12.308v9.976c0 .3-.175.408-.338.408z"/></g></svg>